<?xml version="1.0" encoding="UTF-8" standalone="no"?>
<svg width="40px" height="40px" viewBox="0 0 40 40" version="1.1" xmlns="http://www.w3.org/2000/svg" xmlns:xlink="http://www.w3.org/1999/xlink" xmlns:sketch="http://www.bohemiancoding.com/sketch/ns">
    <!-- Generator: Sketch 3.3.2 (12043) - http://www.bohemiancoding.com/sketch -->
    <title>fb_icon</title>
    <desc>Created with Sketch.</desc>
    <defs></defs>
    <g id="Page-1" stroke="none" stroke-width="1" fill="none" fill-rule="evenodd" sketch:type="MSPage">
        <g id="Desktop-HD" sketch:type="MSArtboardGroup" transform="translate(-1038.000000, -35.000000)" fill="#EBFFFE">
            <g id="header" sketch:type="MSLayerGroup" transform="translate(-8.000000, 35.000000)">
                <path d="M1065.7,0 C1054.8208,0 1046,8.8224 1046,19.7 C1046,30.58 1054.8208,39.3984 1065.7,39.3984 C1076.58,39.3984 1085.3984,30.58 1085.3984,19.7 C1085.3984,8.8224 1076.58,0 1065.7,0 L1065.7,0 Z M1075.624,15.728 C1075.6344,15.9416 1075.6384,16.156 1075.6384,16.3704 C1075.6384,22.9312 1070.6448,30.4968 1061.5128,30.4968 C1058.7096,30.4968 1056.1,29.6744 1053.9024,28.2656 C1054.2912,28.3112 1054.6864,28.3344 1055.0864,28.3344 C1057.4128,28.3344 1059.5536,27.5408 1061.2528,26.2096 C1059.08,26.1688 1057.2472,24.7336 1056.6152,22.7616 C1056.9184,22.8208 1057.2288,22.8512 1057.5496,22.8512 C1058.0024,22.8512 1058.4408,22.7912 1058.8576,22.6768 C1056.5856,22.2208 1054.8744,20.2136 1054.8744,17.8096 C1054.8744,17.788 1054.8744,17.7672 1054.8752,17.7464 C1055.544,18.1184 1056.3096,18.3416 1057.124,18.368 C1055.792,17.476 1054.9152,15.9584 1054.9152,14.2352 C1054.9152,13.3256 1055.16,12.472 1055.5872,11.7392 C1058.036,14.7432 1061.6944,16.7192 1065.8208,16.9264 C1065.736,16.5624 1065.692,16.184 1065.692,15.7952 C1065.692,13.0536 1067.9152,10.8304 1070.6568,10.8304 C1072.0848,10.8304 1073.3744,11.4336 1074.28,12.3976 C1075.4112,12.176 1076.4736,11.7624 1077.4328,11.1936 C1077.0616,12.3536 1076.2752,13.3264 1075.2496,13.94 C1076.2544,13.82 1077.2112,13.5528 1078.1016,13.1584 C1077.4368,14.1536 1076.5936,15.0288 1075.624,15.728 L1075.624,15.728 Z" id="fb_icon" sketch:type="MSShapeGroup"></path>
            </g>
        </g>
    </g>
</svg>