<?xml version="1.0" encoding="UTF-8" standalone="no"?>
<svg width="429px" height="266px" viewBox="0 0 429 266" version="1.1" xmlns="http://www.w3.org/2000/svg" xmlns:xlink="http://www.w3.org/1999/xlink" xmlns:sketch="http://www.bohemiancoding.com/sketch/ns">
    <!-- Generator: Sketch 3.3.2 (12043) - http://www.bohemiancoding.com/sketch -->
    <title>intro_copy</title>
    <desc>Created with Sketch.</desc>
    <defs>
        <linearGradient x1="80.1897637%" y1="0%" x2="104.620929%" y2="4.24514377%" id="linearGradient-1">
            <stop stop-color="#EBFFFE" offset="0%"></stop>
            <stop stop-color="#EBFFFE" stop-opacity="0.609686368" offset="100%"></stop>
        </linearGradient>
    </defs>
    <g id="Page-1" stroke="none" stroke-width="1" fill="none" fill-rule="evenodd" sketch:type="MSPage">
        <g id="Desktop-HD" sketch:type="MSArtboardGroup" transform="translate(-318.000000, -286.000000)" fill="url(#linearGradient-1)">
            <path d="M376.4375,327.734375 C376.229166,330.625014 375.57813,333.281238 374.484375,335.703125 C373.39062,338.125012 371.880218,340.201814 369.953125,341.933594 C368.026032,343.665373 365.688816,345.019526 362.941406,345.996094 C360.193997,346.972661 357.062518,347.460938 353.546875,347.460938 C349.901023,347.460938 346.626317,346.829433 343.722656,345.566406 C340.818996,344.303379 338.358083,342.486991 336.339844,340.117188 C334.321604,337.747384 332.772141,334.876319 331.691406,331.503906 C330.610672,328.131494 330.070312,324.348979 330.070312,320.15625 L330.070312,316.40625 C330.070312,312.213521 330.630203,308.424496 331.75,305.039062 C332.869797,301.653629 334.451813,298.776054 336.496094,296.40625 C338.540375,294.036446 341.020819,292.213548 343.9375,290.9375 C346.854181,289.661452 350.109357,289.023438 353.703125,289.023438 C357.244809,289.023438 360.376288,289.524735 363.097656,290.527344 C365.819024,291.529953 368.130199,292.923168 370.03125,294.707031 C371.932301,296.490894 373.416661,298.613269 374.484375,301.074219 C375.552089,303.535169 376.229165,306.210923 376.515625,309.101562 L364.796875,309.101562 C364.666666,307.408846 364.3737,305.911465 363.917969,304.609375 C363.462237,303.307285 362.804692,302.213546 361.945312,301.328125 C361.085933,300.442704 359.979173,299.772138 358.625,299.316406 C357.270827,298.860675 355.630218,298.632812 353.703125,298.632812 C349.744772,298.632812 346.795583,300.0716 344.855469,302.949219 C342.915355,305.826837 341.945312,310.286428 341.945312,316.328125 L341.945312,320.15625 C341.945312,323.098973 342.160154,325.677072 342.589844,327.890625 C343.019533,330.104178 343.69661,331.953118 344.621094,333.4375 C345.545578,334.921882 346.743482,336.035153 348.214844,336.777344 C349.686205,337.519535 351.463531,337.890625 353.546875,337.890625 C355.395843,337.890625 356.990879,337.682294 358.332031,337.265625 C359.673184,336.848956 360.792964,336.217452 361.691406,335.371094 C362.589848,334.524735 363.286456,333.463548 363.78125,332.1875 C364.276044,330.911452 364.588541,329.427092 364.71875,327.734375 L376.4375,327.734375 Z M407.882812,346.679688 C407.361977,345.664057 406.984376,344.401049 406.75,342.890625 C405.604161,344.166673 404.165373,345.247391 402.433594,346.132812 C400.701814,347.018234 398.58595,347.460938 396.085938,347.460938 C394.054677,347.460938 392.160165,347.148441 390.402344,346.523438 C388.644522,345.898434 387.1211,345.026047 385.832031,343.90625 C384.542962,342.786453 383.533858,341.451831 382.804688,339.902344 C382.075517,338.352857 381.710938,336.653655 381.710938,334.804688 C381.710938,332.591135 382.12109,330.625009 382.941406,328.90625 C383.761723,327.187491 384.992179,325.729173 386.632812,324.53125 C388.273446,323.333327 390.311186,322.421878 392.746094,321.796875 C395.181002,321.171872 398.013005,320.859375 401.242188,320.859375 L406.28125,320.859375 L406.28125,318.4375 C406.28125,316.484365 405.779953,314.921881 404.777344,313.75 C403.774735,312.578119 402.192719,311.992188 400.03125,311.992188 C398.130199,311.992188 396.639328,312.447912 395.558594,313.359375 C394.477859,314.270838 393.9375,315.520825 393.9375,317.109375 L382.648438,317.109375 C382.648438,315.286449 383.07161,313.554696 383.917969,311.914062 C384.764327,310.273429 385.968742,308.841152 387.53125,307.617188 C389.093758,306.393223 390.98176,305.423181 393.195312,304.707031 C395.408865,303.990882 397.882799,303.632812 400.617188,303.632812 C403.065116,303.632812 405.330719,303.945309 407.414062,304.570312 C409.497406,305.195316 411.294263,306.126296 412.804688,307.363281 C414.315112,308.600267 415.493485,310.14973 416.339844,312.011719 C417.186202,313.873707 417.609375,316.041654 417.609375,318.515625 L417.609375,336.40625 C417.609375,337.604173 417.648437,338.678381 417.726562,339.628906 C417.804688,340.579432 417.908854,341.438798 418.039062,342.207031 C418.169271,342.975264 418.338541,343.665362 418.546875,344.277344 C418.755209,344.889326 419.002603,345.468747 419.289062,346.015625 L419.289062,346.679688 L407.882812,346.679688 Z M398.546875,338.828125 C399.510421,338.828125 400.40234,338.710939 401.222656,338.476562 C402.042973,338.242186 402.778643,337.9362 403.429688,337.558594 C404.080732,337.180988 404.647133,336.744794 405.128906,336.25 C405.610679,335.755206 405.99479,335.247398 406.28125,334.726562 L406.28125,327.460938 L401.632812,327.460938 C400.14843,327.460938 398.85938,327.623696 397.765625,327.949219 C396.67187,328.274741 395.773441,328.730466 395.070312,329.316406 C394.367184,329.902347 393.846356,330.592444 393.507812,331.386719 C393.169269,332.180994 393,333.04687 393,333.984375 C393,335.390632 393.494787,336.549475 394.484375,337.460938 C395.473963,338.3724 396.828116,338.828125 398.546875,338.828125 L398.546875,338.828125 Z M464.328125,325.9375 C464.328125,329.010432 463.970056,331.861966 463.253906,334.492188 C462.537757,337.122409 461.48959,339.394522 460.109375,341.308594 C458.72916,343.222666 457.016937,344.726557 454.972656,345.820312 C452.928375,346.914068 450.578138,347.460938 447.921875,347.460938 C445.68228,347.460938 443.709644,347.070316 442.003906,346.289062 C440.298169,345.507809 438.820319,344.41407 437.570312,343.007812 L437.570312,362.929688 L426.28125,362.929688 L426.28125,304.414062 L436.75,304.414062 L437.140625,308.554688 C438.442715,306.99218 439.959627,305.781254 441.691406,304.921875 C443.423186,304.062496 445.473946,303.632812 447.84375,303.632812 C450.526055,303.632812 452.895823,304.14713 454.953125,305.175781 C457.010427,306.204432 458.72916,307.662751 460.109375,309.550781 C461.48959,311.438812 462.537757,313.704414 463.253906,316.347656 C463.970056,318.990899 464.328125,321.914046 464.328125,325.117188 L464.328125,325.9375 Z M453.039062,325.117188 C453.039062,323.372387 452.889324,321.75131 452.589844,320.253906 C452.290363,318.756503 451.815107,317.454433 451.164062,316.347656 C450.513018,315.24088 449.673182,314.375003 448.644531,313.75 C447.61588,313.124997 446.359382,312.8125 444.875,312.8125 C443.026032,312.8125 441.509121,313.157549 440.324219,313.847656 C439.139317,314.537764 438.221357,315.546868 437.570312,316.875 L437.570312,334.179688 C438.221357,335.481777 439.139317,336.503903 440.324219,337.246094 C441.509121,337.988285 443.052074,338.359375 444.953125,338.359375 C446.437507,338.359375 447.694005,338.033857 448.722656,337.382812 C449.751307,336.731768 450.584632,335.839849 451.222656,334.707031 C451.86068,333.574213 452.322915,332.252612 452.609375,330.742188 C452.895835,329.231763 453.039062,327.630217 453.039062,325.9375 L453.039062,325.117188 Z M484.835938,294.023438 L484.835938,304.414062 L492.0625,304.414062 L492.0625,312.695312 L484.835938,312.695312 L484.835938,333.789062 C484.835938,334.674484 484.927082,335.403643 485.109375,335.976562 C485.291668,336.549482 485.565102,336.998696 485.929688,337.324219 C486.294273,337.649741 486.743487,337.871093 487.277344,337.988281 C487.811201,338.105469 488.442705,338.164062 489.171875,338.164062 C489.848962,338.164062 490.467445,338.138021 491.027344,338.085938 C491.587242,338.033854 492.075519,337.96875 492.492188,337.890625 L492.492188,346.445312 C491.554683,346.731772 490.532558,346.972655 489.425781,347.167969 C488.319005,347.363282 487.062507,347.460938 485.65625,347.460938 C483.807282,347.460938 482.140632,347.233075 480.65625,346.777344 C479.171868,346.321612 477.902349,345.598963 476.847656,344.609375 C475.792963,343.619787 474.97917,342.330737 474.40625,340.742188 C473.83333,339.153638 473.546875,337.239595 473.546875,335 L473.546875,312.695312 L467.375,312.695312 L467.375,304.414062 L473.546875,304.414062 L473.546875,294.023438 L484.835938,294.023438 Z M523.664062,342.382812 C522.335931,343.997404 520.721364,345.247391 518.820312,346.132812 C516.919261,347.018234 514.6797,347.460938 512.101562,347.460938 C510.018219,347.460938 508.117196,347.167972 506.398438,346.582031 C504.679679,345.996091 503.201829,345.071621 501.964844,343.808594 C500.727858,342.545567 499.770837,340.917979 499.09375,338.925781 C498.416663,336.933584 498.078125,334.544285 498.078125,331.757812 L498.078125,304.414062 L509.367188,304.414062 L509.367188,331.835938 C509.367188,333.007818 509.516926,334.010413 509.816406,334.84375 C510.115887,335.677087 510.532549,336.347654 511.066406,336.855469 C511.600263,337.363284 512.231767,337.734374 512.960938,337.96875 C513.690108,338.203126 514.497391,338.320312 515.382812,338.320312 C517.414073,338.320312 519.067702,337.968754 520.34375,337.265625 C521.619798,336.562496 522.596351,335.585944 523.273438,334.335938 L523.273438,304.414062 L534.601562,304.414062 L534.601562,346.679688 L523.976562,346.679688 L523.664062,342.382812 Z M566.867188,315 C566.294268,314.921875 565.623702,314.850261 564.855469,314.785156 C564.087236,314.720052 563.403649,314.6875 562.804688,314.6875 C560.591135,314.6875 558.800788,315.05859 557.433594,315.800781 C556.066399,316.542972 555.057295,317.61718 554.40625,319.023438 L554.40625,346.679688 L543.117188,346.679688 L543.117188,304.414062 L553.78125,304.414062 L554.09375,309.453125 C555.161464,307.630199 556.476555,306.204432 558.039062,305.175781 C559.60157,304.14713 561.424469,303.632812 563.507812,303.632812 C564.106774,303.632812 564.738278,303.684895 565.402344,303.789062 C566.06641,303.89323 566.606769,304.010416 567.023438,304.140625 L566.867188,315 Z M591.75,347.460938 C588.468734,347.460938 585.532565,346.927089 582.941406,345.859375 C580.350247,344.791661 578.149749,343.333343 576.339844,341.484375 C574.529939,339.635407 573.149744,337.46746 572.199219,334.980469 C571.248693,332.493477 570.773438,329.830743 570.773438,326.992188 L570.773438,325.46875 C570.773438,322.265609 571.235672,319.32944 572.160156,316.660156 C573.08464,313.990872 574.399731,311.692718 576.105469,309.765625 C577.811206,307.838532 579.881498,306.334641 582.316406,305.253906 C584.751314,304.173172 587.479152,303.632812 590.5,303.632812 C593.54689,303.632812 596.229155,304.13411 598.546875,305.136719 C600.864595,306.139328 602.81119,307.545564 604.386719,309.355469 C605.962247,311.165374 607.147131,313.346341 607.941406,315.898438 C608.735681,318.450534 609.132812,321.289047 609.132812,324.414062 L609.132812,329.21875 L582.21875,329.21875 C582.401043,330.598965 582.772133,331.848953 583.332031,332.96875 C583.89193,334.088547 584.608069,335.045569 585.480469,335.839844 C586.352869,336.634119 587.374994,337.252602 588.546875,337.695312 C589.718756,338.138023 591.033847,338.359375 592.492188,338.359375 C594.549489,338.359375 596.450512,337.975264 598.195312,337.207031 C599.940113,336.438798 601.437494,335.247404 602.6875,333.632812 L608.234375,339.84375 C607.557288,340.807296 606.710943,341.744787 605.695312,342.65625 C604.679682,343.567713 603.481778,344.381507 602.101562,345.097656 C600.721347,345.813806 599.165373,346.386717 597.433594,346.816406 C595.701814,347.246096 593.807302,347.460938 591.75,347.460938 L591.75,347.460938 Z M590.460938,312.773438 C589.236973,312.773438 588.162765,312.988279 587.238281,313.417969 C586.313797,313.847658 585.519535,314.446611 584.855469,315.214844 C584.191403,315.983077 583.651044,316.901036 583.234375,317.96875 C582.817706,319.036464 582.51823,320.221348 582.335938,321.523438 L598.039062,321.523438 L598.039062,320.625 C598.013021,319.505203 597.850262,318.463546 597.550781,317.5 C597.251301,316.536454 596.795576,315.703129 596.183594,315 C595.571612,314.296871 594.790369,313.750002 593.839844,313.359375 C592.889318,312.968748 591.763027,312.773438 590.460938,312.773438 L590.460938,312.773438 Z M648.976562,294.023438 L648.976562,304.414062 L656.203125,304.414062 L656.203125,312.695312 L648.976562,312.695312 L648.976562,333.789062 C648.976562,334.674484 649.067707,335.403643 649.25,335.976562 C649.432293,336.549482 649.705727,336.998696 650.070312,337.324219 C650.434898,337.649741 650.884112,337.871093 651.417969,337.988281 C651.951826,338.105469 652.58333,338.164062 653.3125,338.164062 C653.989587,338.164062 654.60807,338.138021 655.167969,338.085938 C655.727867,338.033854 656.216144,337.96875 656.632812,337.890625 L656.632812,346.445312 C655.695308,346.731772 654.673183,346.972655 653.566406,347.167969 C652.45963,347.363282 651.203132,347.460938 649.796875,347.460938 C647.947907,347.460938 646.281257,347.233075 644.796875,346.777344 C643.312493,346.321612 642.042974,345.598963 640.988281,344.609375 C639.933588,343.619787 639.119795,342.330737 638.546875,340.742188 C637.973955,339.153638 637.6875,337.239595 637.6875,335 L637.6875,312.695312 L631.515625,312.695312 L631.515625,304.414062 L637.6875,304.414062 L637.6875,294.023438 L648.976562,294.023438 Z M673.507812,309.023438 C674.91407,307.330721 676.561188,306.009119 678.449219,305.058594 C680.337249,304.108068 682.453113,303.632812 684.796875,303.632812 C686.880219,303.632812 688.781241,303.925778 690.5,304.511719 C692.218759,305.097659 693.690098,306.048171 694.914062,307.363281 C696.138027,308.678392 697.082028,310.377594 697.746094,312.460938 C698.41016,314.544281 698.742188,317.070298 698.742188,320.039062 L698.742188,346.679688 L687.453125,346.679688 L687.453125,319.960938 C687.453125,318.606764 687.303387,317.473963 687.003906,316.5625 C686.704426,315.651037 686.268232,314.915367 685.695312,314.355469 C685.122393,313.79557 684.412765,313.398439 683.566406,313.164062 C682.720048,312.929686 681.763026,312.8125 680.695312,312.8125 C678.92447,312.8125 677.453131,313.157549 676.28125,313.847656 C675.109369,314.537764 674.184899,315.468744 673.507812,316.640625 L673.507812,346.679688 L662.21875,346.679688 L662.21875,286.679688 L673.507812,286.679688 L673.507812,309.023438 Z M726.710938,347.460938 C723.429671,347.460938 720.493503,346.927089 717.902344,345.859375 C715.311185,344.791661 713.110686,343.333343 711.300781,341.484375 C709.490876,339.635407 708.110682,337.46746 707.160156,334.980469 C706.209631,332.493477 705.734375,329.830743 705.734375,326.992188 L705.734375,325.46875 C705.734375,322.265609 706.19661,319.32944 707.121094,316.660156 C708.045578,313.990872 709.360669,311.692718 711.066406,309.765625 C712.772144,307.838532 714.842436,306.334641 717.277344,305.253906 C719.712252,304.173172 722.440089,303.632812 725.460938,303.632812 C728.507828,303.632812 731.190093,304.13411 733.507812,305.136719 C735.825532,306.139328 737.772128,307.545564 739.347656,309.355469 C740.923185,311.165374 742.108069,313.346341 742.902344,315.898438 C743.696619,318.450534 744.09375,321.289047 744.09375,324.414062 L744.09375,329.21875 L717.179688,329.21875 C717.36198,330.598965 717.73307,331.848953 718.292969,332.96875 C718.852867,334.088547 719.569006,335.045569 720.441406,335.839844 C721.313806,336.634119 722.335932,337.252602 723.507812,337.695312 C724.679693,338.138023 725.994784,338.359375 727.453125,338.359375 C729.510427,338.359375 731.41145,337.975264 733.15625,337.207031 C734.90105,336.438798 736.398431,335.247404 737.648438,333.632812 L743.195312,339.84375 C742.518226,340.807296 741.67188,341.744787 740.65625,342.65625 C739.64062,343.567713 738.442715,344.381507 737.0625,345.097656 C735.682285,345.813806 734.126311,346.386717 732.394531,346.816406 C730.662752,347.246096 728.768239,347.460938 726.710938,347.460938 L726.710938,347.460938 Z M725.421875,312.773438 C724.197911,312.773438 723.123703,312.988279 722.199219,313.417969 C721.274735,313.847658 720.480472,314.446611 719.816406,315.214844 C719.15234,315.983077 718.611981,316.901036 718.195312,317.96875 C717.778644,319.036464 717.479168,320.221348 717.296875,321.523438 L733,321.523438 L733,320.625 C732.973958,319.505203 732.811199,318.463546 732.511719,317.5 C732.212238,316.536454 731.756513,315.703129 731.144531,315 C730.532549,314.296871 729.751307,313.750002 728.800781,313.359375 C727.850256,312.968748 726.723965,312.773438 725.421875,312.773438 L725.421875,312.773438 Z M338.976562,441.460938 C335.695296,441.460938 332.759128,440.927089 330.167969,439.859375 C327.57681,438.791661 325.376311,437.333343 323.566406,435.484375 C321.756501,433.635407 320.376307,431.46746 319.425781,428.980469 C318.475256,426.493477 318,423.830743 318,420.992188 L318,419.46875 C318,416.265609 318.462235,413.32944 319.386719,410.660156 C320.311203,407.990872 321.626294,405.692718 323.332031,403.765625 C325.037769,401.838532 327.108061,400.334641 329.542969,399.253906 C331.977877,398.173172 334.705714,397.632812 337.726562,397.632812 C340.773453,397.632812 343.455718,398.13411 345.773438,399.136719 C348.091157,400.139328 350.037753,401.545564 351.613281,403.355469 C353.18881,405.165374 354.373694,407.346341 355.167969,409.898438 C355.962244,412.450534 356.359375,415.289047 356.359375,418.414062 L356.359375,423.21875 L329.445312,423.21875 C329.627605,424.598965 329.998695,425.848953 330.558594,426.96875 C331.118492,428.088547 331.834631,429.045569 332.707031,429.839844 C333.579431,430.634119 334.601557,431.252602 335.773438,431.695312 C336.945318,432.138023 338.260409,432.359375 339.71875,432.359375 C341.776052,432.359375 343.677075,431.975264 345.421875,431.207031 C347.166675,430.438798 348.664056,429.247404 349.914062,427.632812 L355.460938,433.84375 C354.783851,434.807296 353.937505,435.744787 352.921875,436.65625 C351.906245,437.567713 350.70834,438.381507 349.328125,439.097656 C347.94791,439.813806 346.391936,440.386717 344.660156,440.816406 C342.928377,441.246096 341.033864,441.460938 338.976562,441.460938 L338.976562,441.460938 Z M337.6875,406.773438 C336.463536,406.773438 335.389328,406.988279 334.464844,407.417969 C333.54036,407.847658 332.746097,408.446611 332.082031,409.214844 C331.417965,409.983077 330.877606,410.901036 330.460938,411.96875 C330.044269,413.036464 329.744793,414.221348 329.5625,415.523438 L345.265625,415.523438 L345.265625,414.625 C345.239583,413.505203 345.076824,412.463546 344.777344,411.5 C344.477863,410.536454 344.022138,409.703129 343.410156,409 C342.798174,408.296871 342.016932,407.750002 341.066406,407.359375 C340.115881,406.968748 338.98959,406.773438 337.6875,406.773438 L337.6875,406.773438 Z M373.351562,398.414062 L373.703125,403.140625 C375.109382,401.421866 376.821604,400.074224 378.839844,399.097656 C380.858083,398.121089 383.195299,397.632812 385.851562,397.632812 C388.377617,397.632812 390.610667,398.14062 392.550781,399.15625 C394.490895,400.17188 395.994786,401.812489 397.0625,404.078125 C398.442715,402.072907 400.180979,400.497402 402.277344,399.351562 C404.373708,398.205723 406.867173,397.632812 409.757812,397.632812 C411.815114,397.632812 413.683585,397.919268 415.363281,398.492188 C417.042977,399.065107 418.475254,399.989577 419.660156,401.265625 C420.845058,402.541673 421.756507,404.201813 422.394531,406.246094 C423.032555,408.290375 423.351562,410.79686 423.351562,413.765625 L423.351562,440.679688 L412.023438,440.679688 L412.023438,413.765625 C412.023438,412.359368 411.873699,411.200525 411.574219,410.289062 C411.274738,409.3776 410.851565,408.667971 410.304688,408.160156 C409.75781,407.652341 409.093754,407.300782 408.3125,407.105469 C407.531246,406.910155 406.645838,406.8125 405.65625,406.8125 C403.91145,406.8125 402.453131,407.248694 401.28125,408.121094 C400.109369,408.993494 399.223961,410.171868 398.625,411.65625 C398.625,411.786459 398.63151,411.929687 398.644531,412.085938 C398.657552,412.242188 398.664062,412.385416 398.664062,412.515625 L398.664062,440.679688 L387.375,440.679688 L387.375,413.84375 C387.375,412.437493 387.231772,411.27865 386.945312,410.367188 C386.658853,409.455725 386.24219,408.739586 385.695312,408.21875 C385.148435,407.697914 384.477869,407.333334 383.683594,407.125 C382.889319,406.916666 381.997401,406.8125 381.007812,406.8125 C379.341138,406.8125 377.934902,407.164059 376.789062,407.867188 C375.643223,408.570316 374.731774,409.546869 374.054688,410.796875 L374.054688,440.679688 L362.765625,440.679688 L362.765625,398.414062 L373.351562,398.414062 Z M430.265625,419.15625 C430.265625,416.083318 430.708329,413.231784 431.59375,410.601562 C432.479171,407.971341 433.768221,405.699228 435.460938,403.785156 C437.153654,401.871084 439.243477,400.367193 441.730469,399.273438 C444.21746,398.179682 447.049463,397.632812 450.226562,397.632812 C453.429704,397.632812 456.281237,398.179682 458.78125,399.273438 C461.281263,400.367193 463.384106,401.871084 465.089844,403.785156 C466.795581,405.699228 468.091141,407.971341 468.976562,410.601562 C469.861984,413.231784 470.304688,416.083318 470.304688,419.15625 L470.304688,419.976562 C470.304688,423.075536 469.861984,425.933581 468.976562,428.550781 C468.091141,431.167982 466.795581,433.433584 465.089844,435.347656 C463.384106,437.261728 461.294283,438.759109 458.820312,439.839844 C456.346342,440.920578 453.507829,441.460938 450.304688,441.460938 C447.101546,441.460938 444.256523,440.920578 441.769531,439.839844 C439.28254,438.759109 437.186206,437.261728 435.480469,435.347656 C433.774731,433.433584 432.479171,431.167982 431.59375,428.550781 C430.708329,425.933581 430.265625,423.075536 430.265625,419.976562 L430.265625,419.15625 Z M441.554688,419.976562 C441.554688,421.695321 441.710936,423.309888 442.023438,424.820312 C442.335939,426.330737 442.837236,427.639317 443.527344,428.746094 C444.217451,429.85287 445.11588,430.731768 446.222656,431.382812 C447.329433,432.033857 448.690096,432.359375 450.304688,432.359375 C451.867195,432.359375 453.201817,432.033857 454.308594,431.382812 C455.41537,430.731768 456.320309,429.85287 457.023438,428.746094 C457.726566,427.639317 458.234373,426.330737 458.546875,424.820312 C458.859377,423.309888 459.015625,421.695321 459.015625,419.976562 L459.015625,419.15625 C459.015625,417.489575 458.859377,415.90756 458.546875,414.410156 C458.234373,412.912753 457.726566,411.597662 457.023438,410.464844 C456.320309,409.332026 455.40886,408.433597 454.289062,407.769531 C453.169265,407.105465 451.815112,406.773438 450.226562,406.773438 C448.664055,406.773438 447.329433,407.105465 446.222656,407.769531 C445.11588,408.433597 444.217451,409.332026 443.527344,410.464844 C442.837236,411.597662 442.335939,412.912753 442.023438,414.410156 C441.710936,415.90756 441.554688,417.489575 441.554688,419.15625 L441.554688,419.976562 Z M490.773438,388.023438 L490.773438,398.414062 L498,398.414062 L498,406.695312 L490.773438,406.695312 L490.773438,427.789062 C490.773438,428.674484 490.864582,429.403643 491.046875,429.976562 C491.229168,430.549482 491.502602,430.998696 491.867188,431.324219 C492.231773,431.649741 492.680987,431.871093 493.214844,431.988281 C493.748701,432.105469 494.380205,432.164062 495.109375,432.164062 C495.786462,432.164062 496.404945,432.138021 496.964844,432.085938 C497.524742,432.033854 498.013019,431.96875 498.429688,431.890625 L498.429688,440.445312 C497.492183,440.731772 496.470058,440.972655 495.363281,441.167969 C494.256505,441.363282 493.000007,441.460938 491.59375,441.460938 C489.744782,441.460938 488.078132,441.233075 486.59375,440.777344 C485.109368,440.321612 483.839849,439.598963 482.785156,438.609375 C481.730463,437.619787 480.91667,436.330737 480.34375,434.742188 C479.77083,433.153638 479.484375,431.239595 479.484375,429 L479.484375,406.695312 L473.3125,406.695312 L473.3125,398.414062 L479.484375,398.414062 L479.484375,388.023438 L490.773438,388.023438 Z M516.203125,440.679688 L504.875,440.679688 L504.875,398.414062 L516.203125,398.414062 L516.203125,440.679688 Z M504.210938,387.476562 C504.210938,385.783846 504.777338,384.39063 505.910156,383.296875 C507.042974,382.20312 508.585928,381.65625 510.539062,381.65625 C511.502609,381.65625 512.374996,381.799478 513.15625,382.085938 C513.937504,382.372397 514.60156,382.776039 515.148438,383.296875 C515.695315,383.817711 516.118488,384.436194 516.417969,385.152344 C516.717449,385.868493 516.867188,386.643225 516.867188,387.476562 C516.867188,388.335942 516.717449,389.123694 516.417969,389.839844 C516.118488,390.555993 515.695315,391.174477 515.148438,391.695312 C514.60156,392.216148 513.937504,392.61979 513.15625,392.90625 C512.374996,393.19271 511.502609,393.335938 510.539062,393.335938 C509.575516,393.335938 508.703129,393.19271 507.921875,392.90625 C507.140621,392.61979 506.476565,392.216148 505.929688,391.695312 C505.38281,391.174477 504.959637,390.555993 504.660156,389.839844 C504.360676,389.123694 504.210938,388.335942 504.210938,387.476562 L504.210938,387.476562 Z M523.742188,419.15625 C523.742188,416.083318 524.184891,413.231784 525.070312,410.601562 C525.955734,407.971341 527.244783,405.699228 528.9375,403.785156 C530.630217,401.871084 532.72004,400.367193 535.207031,399.273438 C537.694023,398.179682 540.526026,397.632812 543.703125,397.632812 C546.906266,397.632812 549.7578,398.179682 552.257812,399.273438 C554.757825,400.367193 556.860669,401.871084 558.566406,403.785156 C560.272144,405.699228 561.567704,407.971341 562.453125,410.601562 C563.338546,413.231784 563.78125,416.083318 563.78125,419.15625 L563.78125,419.976562 C563.78125,423.075536 563.338546,425.933581 562.453125,428.550781 C561.567704,431.167982 560.272144,433.433584 558.566406,435.347656 C556.860669,437.261728 554.770846,438.759109 552.296875,439.839844 C549.822904,440.920578 546.984391,441.460938 543.78125,441.460938 C540.578109,441.460938 537.733085,440.920578 535.246094,439.839844 C532.759102,438.759109 530.662769,437.261728 528.957031,435.347656 C527.251294,433.433584 525.955734,431.167982 525.070312,428.550781 C524.184891,425.933581 523.742188,423.075536 523.742188,419.976562 L523.742188,419.15625 Z M535.03125,419.976562 C535.03125,421.695321 535.187498,423.309888 535.5,424.820312 C535.812502,426.330737 536.313799,427.639317 537.003906,428.746094 C537.694014,429.85287 538.592442,430.731768 539.699219,431.382812 C540.805995,432.033857 542.166659,432.359375 543.78125,432.359375 C545.343758,432.359375 546.67838,432.033857 547.785156,431.382812 C548.891933,430.731768 549.796871,429.85287 550.5,428.746094 C551.203129,427.639317 551.710936,426.330737 552.023438,424.820312 C552.335939,423.309888 552.492188,421.695321 552.492188,419.976562 L552.492188,419.15625 C552.492188,417.489575 552.335939,415.90756 552.023438,414.410156 C551.710936,412.912753 551.203129,411.597662 550.5,410.464844 C549.796871,409.332026 548.885422,408.433597 547.765625,407.769531 C546.645828,407.105465 545.291675,406.773438 543.703125,406.773438 C542.140617,406.773438 540.805995,407.105465 539.699219,407.769531 C538.592442,408.433597 537.694014,409.332026 537.003906,410.464844 C536.313799,411.597662 535.812502,412.912753 535.5,414.410156 C535.187498,415.90756 535.03125,417.489575 535.03125,419.15625 L535.03125,419.976562 Z M581.125,398.414062 L581.476562,403.296875 C582.934903,401.473949 584.692698,400.074224 586.75,399.097656 C588.807302,398.121089 591.098946,397.632812 593.625,397.632812 C595.630218,397.632812 597.453117,397.912758 599.09375,398.472656 C600.734383,399.032555 602.140619,399.950514 603.3125,401.226562 C604.484381,402.502611 605.38932,404.169261 606.027344,406.226562 C606.665368,408.283864 606.984375,410.809881 606.984375,413.804688 L606.984375,440.679688 L595.695312,440.679688 L595.695312,413.726562 C595.695312,412.372389 595.545574,411.252609 595.246094,410.367188 C594.946613,409.481766 594.51042,408.778648 593.9375,408.257812 C593.36458,407.736977 592.661462,407.365887 591.828125,407.144531 C590.994788,406.923176 590.031255,406.8125 588.9375,406.8125 C587.270825,406.8125 585.845058,407.17708 584.660156,407.90625 C583.475254,408.63542 582.518233,409.624994 581.789062,410.875 L581.789062,440.679688 L570.5,440.679688 L570.5,398.414062 L581.125,398.414062 Z M638.429688,429 C638.429688,428.401039 638.312501,427.854169 638.078125,427.359375 C637.843749,426.864581 637.401045,426.402346 636.75,425.972656 C636.098955,425.542967 635.213547,425.132814 634.09375,424.742188 C632.973953,424.351561 631.528655,423.97396 629.757812,423.609375 C627.596343,423.140623 625.597665,422.554691 623.761719,421.851562 C621.925772,421.148434 620.337246,420.276047 618.996094,419.234375 C617.654941,418.192703 616.606775,416.981778 615.851562,415.601562 C615.09635,414.221347 614.71875,412.619801 614.71875,410.796875 C614.71875,409.026033 615.102861,407.346362 615.871094,405.757812 C616.639327,404.169263 617.746087,402.769537 619.191406,401.558594 C620.636726,400.34765 622.407542,399.390629 624.503906,398.6875 C626.600271,397.984371 628.963529,397.632812 631.59375,397.632812 C634.328139,397.632812 636.789052,397.971351 638.976562,398.648438 C641.164073,399.325524 643.019524,400.269525 644.542969,401.480469 C646.066414,402.691412 647.238277,404.1302 648.058594,405.796875 C648.87891,407.46355 649.289062,409.286448 649.289062,411.265625 L638,411.265625 C638,409.651034 637.479172,408.316412 636.4375,407.261719 C635.395828,406.207026 633.76824,405.679688 631.554688,405.679688 C629.653636,405.679688 628.182297,406.109371 627.140625,406.96875 C626.098953,407.828129 625.578125,408.921868 625.578125,410.25 C625.578125,410.875003 625.714842,411.428383 625.988281,411.910156 C626.26172,412.391929 626.704424,412.834633 627.316406,413.238281 C627.928388,413.641929 628.735672,414.013019 629.738281,414.351562 C630.74089,414.690106 631.971347,415.002603 633.429688,415.289062 C635.721366,415.731773 637.84374,416.278643 639.796875,416.929688 C641.75001,417.580732 643.436191,418.420568 644.855469,419.449219 C646.274747,420.47787 647.388017,421.727857 648.195312,423.199219 C649.002608,424.67058 649.40625,426.447906 649.40625,428.53125 C649.40625,430.406259 648.989587,432.131503 648.15625,433.707031 C647.322913,435.28256 646.131518,436.643223 644.582031,437.789062 C643.032544,438.934902 641.164073,439.83333 638.976562,440.484375 C636.789052,441.13542 634.341159,441.460938 631.632812,441.460938 C628.664048,441.460938 626.046886,441.044275 623.78125,440.210938 C621.515614,439.3776 619.608081,438.283861 618.058594,436.929688 C616.509107,435.575514 615.343754,434.052092 614.5625,432.359375 C613.781246,430.666658 613.390625,428.960946 613.390625,427.242188 L624.09375,427.242188 C624.145834,428.335943 624.386717,429.279944 624.816406,430.074219 C625.246096,430.868494 625.812496,431.513018 626.515625,432.007812 C627.218754,432.502607 628.032547,432.867186 628.957031,433.101562 C629.881515,433.335939 630.851557,433.453125 631.867188,433.453125 C634.028657,433.453125 635.662755,433.042973 636.769531,432.222656 C637.876308,431.40234 638.429688,430.328132 638.429688,429 L638.429688,429 Z M674.835938,419.15625 C674.835938,416.083318 675.278641,413.231784 676.164062,410.601562 C677.049484,407.971341 678.338533,405.699228 680.03125,403.785156 C681.723967,401.871084 683.81379,400.367193 686.300781,399.273438 C688.787773,398.179682 691.619776,397.632812 694.796875,397.632812 C698.000016,397.632812 700.85155,398.179682 703.351562,399.273438 C705.851575,400.367193 707.954419,401.871084 709.660156,403.785156 C711.365894,405.699228 712.661454,407.971341 713.546875,410.601562 C714.432296,413.231784 714.875,416.083318 714.875,419.15625 L714.875,419.976562 C714.875,423.075536 714.432296,425.933581 713.546875,428.550781 C712.661454,431.167982 711.365894,433.433584 709.660156,435.347656 C707.954419,437.261728 705.864596,438.759109 703.390625,439.839844 C700.916654,440.920578 698.078141,441.460938 694.875,441.460938 C691.671859,441.460938 688.826835,440.920578 686.339844,439.839844 C683.852852,438.759109 681.756519,437.261728 680.050781,435.347656 C678.345044,433.433584 677.049484,431.167982 676.164062,428.550781 C675.278641,425.933581 674.835938,423.075536 674.835938,419.976562 L674.835938,419.15625 Z M686.125,419.976562 C686.125,421.695321 686.281248,423.309888 686.59375,424.820312 C686.906252,426.330737 687.407549,427.639317 688.097656,428.746094 C688.787764,429.85287 689.686192,430.731768 690.792969,431.382812 C691.899745,432.033857 693.260409,432.359375 694.875,432.359375 C696.437508,432.359375 697.77213,432.033857 698.878906,431.382812 C699.985683,430.731768 700.890621,429.85287 701.59375,428.746094 C702.296879,427.639317 702.804686,426.330737 703.117188,424.820312 C703.429689,423.309888 703.585938,421.695321 703.585938,419.976562 L703.585938,419.15625 C703.585938,417.489575 703.429689,415.90756 703.117188,414.410156 C702.804686,412.912753 702.296879,411.597662 701.59375,410.464844 C700.890621,409.332026 699.979172,408.433597 698.859375,407.769531 C697.739578,407.105465 696.385425,406.773438 694.796875,406.773438 C693.234367,406.773438 691.899745,407.105465 690.792969,407.769531 C689.686192,408.433597 688.787764,409.332026 688.097656,410.464844 C687.407549,411.597662 686.906252,412.912753 686.59375,414.410156 C686.281248,415.90756 686.125,417.489575 686.125,419.15625 L686.125,419.976562 Z M724.914062,440.679688 L724.914062,406.695312 L718.625,406.695312 L718.625,398.414062 L724.914062,398.414062 L724.914062,394.742188 C724.914062,392.346342 725.272132,390.223968 725.988281,388.375 C726.704431,386.526032 727.733066,384.970058 729.074219,383.707031 C730.415371,382.444004 732.042959,381.486982 733.957031,380.835938 C735.871103,380.184893 738.02603,379.859375 740.421875,379.859375 C741.437505,379.859375 742.420568,379.937499 743.371094,380.09375 C744.321619,380.250001 745.2526,380.432291 746.164062,380.640625 L746.046875,389.390625 C745.10937,389.156249 743.963548,389.039062 742.609375,389.039062 C740.578115,389.039062 739.00912,389.527339 737.902344,390.503906 C736.795567,391.480474 736.242188,392.89322 736.242188,394.742188 L736.242188,398.414062 L744.640625,398.414062 L744.640625,406.695312 L736.242188,406.695312 L736.242188,440.679688 L724.914062,440.679688 Z M385.617188,534.679688 C385.096352,533.664057 384.718751,532.401049 384.484375,530.890625 C383.338536,532.166673 381.899748,533.247391 380.167969,534.132812 C378.436189,535.018234 376.320325,535.460938 373.820312,535.460938 C371.789052,535.460938 369.89454,535.148441 368.136719,534.523438 C366.378897,533.898434 364.855475,533.026047 363.566406,531.90625 C362.277337,530.786453 361.268233,529.451831 360.539062,527.902344 C359.809892,526.352857 359.445312,524.653655 359.445312,522.804688 C359.445312,520.591135 359.855465,518.625009 360.675781,516.90625 C361.496098,515.187491 362.726554,513.729173 364.367188,512.53125 C366.007821,511.333327 368.045561,510.421878 370.480469,509.796875 C372.915377,509.171872 375.74738,508.859375 378.976562,508.859375 L384.015625,508.859375 L384.015625,506.4375 C384.015625,504.484365 383.514328,502.921881 382.511719,501.75 C381.50911,500.578119 379.927094,499.992188 377.765625,499.992188 C375.864574,499.992188 374.373703,500.447912 373.292969,501.359375 C372.212234,502.270838 371.671875,503.520825 371.671875,505.109375 L360.382812,505.109375 C360.382812,503.286449 360.805985,501.554696 361.652344,499.914062 C362.498702,498.273429 363.703117,496.841152 365.265625,495.617188 C366.828133,494.393223 368.716135,493.423181 370.929688,492.707031 C373.14324,491.990882 375.617174,491.632812 378.351562,491.632812 C380.799491,491.632812 383.065094,491.945309 385.148438,492.570312 C387.231781,493.195316 389.028638,494.126296 390.539062,495.363281 C392.049487,496.600267 393.22786,498.14973 394.074219,500.011719 C394.920577,501.873707 395.34375,504.041654 395.34375,506.515625 L395.34375,524.40625 C395.34375,525.604173 395.382812,526.678381 395.460938,527.628906 C395.539063,528.579432 395.643229,529.438798 395.773438,530.207031 C395.903646,530.975264 396.072916,531.665362 396.28125,532.277344 C396.489584,532.889326 396.736978,533.468747 397.023438,534.015625 L397.023438,534.679688 L385.617188,534.679688 Z M376.28125,526.828125 C377.244796,526.828125 378.136715,526.710939 378.957031,526.476562 C379.777348,526.242186 380.513018,525.9362 381.164062,525.558594 C381.815107,525.180988 382.381508,524.744794 382.863281,524.25 C383.345054,523.755206 383.729165,523.247398 384.015625,522.726562 L384.015625,515.460938 L379.367188,515.460938 C377.882805,515.460938 376.593755,515.623696 375.5,515.949219 C374.406245,516.274741 373.507816,516.730466 372.804688,517.316406 C372.101559,517.902347 371.580731,518.592444 371.242188,519.386719 C370.903644,520.180994 370.734375,521.04687 370.734375,521.984375 C370.734375,523.390632 371.229162,524.549475 372.21875,525.460938 C373.208338,526.3724 374.562491,526.828125 376.28125,526.828125 L376.28125,526.828125 Z M434.523438,492.414062 L434.875,497.140625 C436.281257,495.421866 437.993479,494.074224 440.011719,493.097656 C442.029958,492.121089 444.367174,491.632812 447.023438,491.632812 C449.549492,491.632812 451.782542,492.14062 453.722656,493.15625 C455.66277,494.17188 457.166661,495.812489 458.234375,498.078125 C459.61459,496.072907 461.352854,494.497402 463.449219,493.351562 C465.545583,492.205723 468.039048,491.632812 470.929688,491.632812 C472.986989,491.632812 474.85546,491.919268 476.535156,492.492188 C478.214852,493.065107 479.647129,493.989577 480.832031,495.265625 C482.016933,496.541673 482.928382,498.201813 483.566406,500.246094 C484.20443,502.290375 484.523438,504.79686 484.523438,507.765625 L484.523438,534.679688 L473.195312,534.679688 L473.195312,507.765625 C473.195312,506.359368 473.045574,505.200525 472.746094,504.289062 C472.446613,503.3776 472.02344,502.667971 471.476562,502.160156 C470.929685,501.652341 470.265629,501.300782 469.484375,501.105469 C468.703121,500.910155 467.817713,500.8125 466.828125,500.8125 C465.083325,500.8125 463.625006,501.248694 462.453125,502.121094 C461.281244,502.993494 460.395836,504.171868 459.796875,505.65625 C459.796875,505.786459 459.803385,505.929687 459.816406,506.085938 C459.829427,506.242188 459.835938,506.385416 459.835938,506.515625 L459.835938,534.679688 L448.546875,534.679688 L448.546875,507.84375 C448.546875,506.437493 448.403647,505.27865 448.117188,504.367188 C447.830728,503.455725 447.414065,502.739586 446.867188,502.21875 C446.32031,501.697914 445.649744,501.333334 444.855469,501.125 C444.061194,500.916666 443.169276,500.8125 442.179688,500.8125 C440.513013,500.8125 439.106777,501.164059 437.960938,501.867188 C436.815098,502.570316 435.903649,503.546869 435.226562,504.796875 L435.226562,534.679688 L423.9375,534.679688 L423.9375,492.414062 L434.523438,492.414062 Z M512.648438,535.460938 C509.367171,535.460938 506.431003,534.927089 503.839844,533.859375 C501.248685,532.791661 499.048186,531.333343 497.238281,529.484375 C495.428376,527.635407 494.048182,525.46746 493.097656,522.980469 C492.147131,520.493477 491.671875,517.830743 491.671875,514.992188 L491.671875,513.46875 C491.671875,510.265609 492.13411,507.32944 493.058594,504.660156 C493.983078,501.990872 495.298169,499.692718 497.003906,497.765625 C498.709644,495.838532 500.779936,494.334641 503.214844,493.253906 C505.649752,492.173172 508.377589,491.632812 511.398438,491.632812 C514.445328,491.632812 517.127593,492.13411 519.445312,493.136719 C521.763032,494.139328 523.709628,495.545564 525.285156,497.355469 C526.860685,499.165374 528.045569,501.346341 528.839844,503.898438 C529.634119,506.450534 530.03125,509.289047 530.03125,512.414062 L530.03125,517.21875 L503.117188,517.21875 C503.29948,518.598965 503.67057,519.848953 504.230469,520.96875 C504.790367,522.088547 505.506506,523.045569 506.378906,523.839844 C507.251306,524.634119 508.273432,525.252602 509.445312,525.695312 C510.617193,526.138023 511.932284,526.359375 513.390625,526.359375 C515.447927,526.359375 517.34895,525.975264 519.09375,525.207031 C520.83855,524.438798 522.335931,523.247404 523.585938,521.632812 L529.132812,527.84375 C528.455726,528.807296 527.60938,529.744787 526.59375,530.65625 C525.57812,531.567713 524.380215,532.381507 523,533.097656 C521.619785,533.813806 520.063811,534.386717 518.332031,534.816406 C516.600252,535.246096 514.705739,535.460938 512.648438,535.460938 L512.648438,535.460938 Z M511.359375,500.773438 C510.135411,500.773438 509.061203,500.988279 508.136719,501.417969 C507.212235,501.847658 506.417972,502.446611 505.753906,503.214844 C505.08984,503.983077 504.549481,504.901036 504.132812,505.96875 C503.716144,507.036464 503.416668,508.221348 503.234375,509.523438 L518.9375,509.523438 L518.9375,508.625 C518.911458,507.505203 518.748699,506.463546 518.449219,505.5 C518.149738,504.536454 517.694013,503.703129 517.082031,503 C516.470049,502.296871 515.688807,501.750002 514.738281,501.359375 C513.787756,500.968748 512.661465,500.773438 511.359375,500.773438 L511.359375,500.773438 Z M559.328125,523 C559.328125,522.401039 559.210939,521.854169 558.976562,521.359375 C558.742186,520.864581 558.299482,520.402346 557.648438,519.972656 C556.997393,519.542967 556.111985,519.132814 554.992188,518.742188 C553.87239,518.351561 552.427092,517.97396 550.65625,517.609375 C548.494781,517.140623 546.496103,516.554691 544.660156,515.851562 C542.82421,515.148434 541.235684,514.276047 539.894531,513.234375 C538.553379,512.192703 537.505212,510.981778 536.75,509.601562 C535.994788,508.221347 535.617188,506.619801 535.617188,504.796875 C535.617188,503.026033 536.001298,501.346362 536.769531,499.757812 C537.537764,498.169263 538.644524,496.769537 540.089844,495.558594 C541.535163,494.34765 543.305979,493.390629 545.402344,492.6875 C547.498708,491.984371 549.861966,491.632812 552.492188,491.632812 C555.226576,491.632812 557.687489,491.971351 559.875,492.648438 C562.062511,493.325524 563.917961,494.269525 565.441406,495.480469 C566.964851,496.691412 568.136715,498.1302 568.957031,499.796875 C569.777348,501.46355 570.1875,503.286448 570.1875,505.265625 L558.898438,505.265625 C558.898438,503.651034 558.377609,502.316412 557.335938,501.261719 C556.294266,500.207026 554.666678,499.679688 552.453125,499.679688 C550.552074,499.679688 549.080734,500.109371 548.039062,500.96875 C546.997391,501.828129 546.476562,502.921868 546.476562,504.25 C546.476562,504.875003 546.61328,505.428383 546.886719,505.910156 C547.160158,506.391929 547.602862,506.834633 548.214844,507.238281 C548.826826,507.641929 549.63411,508.013019 550.636719,508.351562 C551.639328,508.690106 552.869784,509.002603 554.328125,509.289062 C556.619803,509.731773 558.742178,510.278643 560.695312,510.929688 C562.648447,511.580732 564.334628,512.420568 565.753906,513.449219 C567.173184,514.47787 568.286454,515.727857 569.09375,517.199219 C569.901046,518.67058 570.304688,520.447906 570.304688,522.53125 C570.304688,524.406259 569.888025,526.131503 569.054688,527.707031 C568.22135,529.28256 567.029956,530.643223 565.480469,531.789062 C563.930982,532.934902 562.062511,533.83333 559.875,534.484375 C557.687489,535.13542 555.239597,535.460938 552.53125,535.460938 C549.562485,535.460938 546.945324,535.044275 544.679688,534.210938 C542.414051,533.3776 540.506518,532.283861 538.957031,530.929688 C537.407544,529.575514 536.242191,528.052092 535.460938,526.359375 C534.679684,524.666658 534.289062,522.960946 534.289062,521.242188 L544.992188,521.242188 C545.044271,522.335943 545.285154,523.279944 545.714844,524.074219 C546.144533,524.868494 546.710934,525.513018 547.414062,526.007812 C548.117191,526.502607 548.930985,526.867186 549.855469,527.101562 C550.779953,527.335939 551.749995,527.453125 552.765625,527.453125 C554.927094,527.453125 556.561192,527.042973 557.667969,526.222656 C558.774745,525.40234 559.328125,524.328132 559.328125,523 L559.328125,523 Z M600.460938,523 C600.460938,522.401039 600.343751,521.854169 600.109375,521.359375 C599.874999,520.864581 599.432295,520.402346 598.78125,519.972656 C598.130205,519.542967 597.244797,519.132814 596.125,518.742188 C595.005203,518.351561 593.559905,517.97396 591.789062,517.609375 C589.627593,517.140623 587.628915,516.554691 585.792969,515.851562 C583.957022,515.148434 582.368496,514.276047 581.027344,513.234375 C579.686191,512.192703 578.638025,510.981778 577.882812,509.601562 C577.1276,508.221347 576.75,506.619801 576.75,504.796875 C576.75,503.026033 577.134111,501.346362 577.902344,499.757812 C578.670577,498.169263 579.777337,496.769537 581.222656,495.558594 C582.667976,494.34765 584.438792,493.390629 586.535156,492.6875 C588.631521,491.984371 590.994779,491.632812 593.625,491.632812 C596.359389,491.632812 598.820302,491.971351 601.007812,492.648438 C603.195323,493.325524 605.050774,494.269525 606.574219,495.480469 C608.097664,496.691412 609.269527,498.1302 610.089844,499.796875 C610.91016,501.46355 611.320312,503.286448 611.320312,505.265625 L600.03125,505.265625 C600.03125,503.651034 599.510422,502.316412 598.46875,501.261719 C597.427078,500.207026 595.79949,499.679688 593.585938,499.679688 C591.684886,499.679688 590.213547,500.109371 589.171875,500.96875 C588.130203,501.828129 587.609375,502.921868 587.609375,504.25 C587.609375,504.875003 587.746092,505.428383 588.019531,505.910156 C588.29297,506.391929 588.735674,506.834633 589.347656,507.238281 C589.959638,507.641929 590.766922,508.013019 591.769531,508.351562 C592.77214,508.690106 594.002597,509.002603 595.460938,509.289062 C597.752616,509.731773 599.87499,510.278643 601.828125,510.929688 C603.78126,511.580732 605.467441,512.420568 606.886719,513.449219 C608.305997,514.47787 609.419267,515.727857 610.226562,517.199219 C611.033858,518.67058 611.4375,520.447906 611.4375,522.53125 C611.4375,524.406259 611.020837,526.131503 610.1875,527.707031 C609.354163,529.28256 608.162768,530.643223 606.613281,531.789062 C605.063794,532.934902 603.195323,533.83333 601.007812,534.484375 C598.820302,535.13542 596.372409,535.460938 593.664062,535.460938 C590.695298,535.460938 588.078136,535.044275 585.8125,534.210938 C583.546864,533.3776 581.639331,532.283861 580.089844,530.929688 C578.540357,529.575514 577.375004,528.052092 576.59375,526.359375 C575.812496,524.666658 575.421875,522.960946 575.421875,521.242188 L586.125,521.242188 C586.177084,522.335943 586.417967,523.279944 586.847656,524.074219 C587.277346,524.868494 587.843746,525.513018 588.546875,526.007812 C589.250004,526.502607 590.063797,526.867186 590.988281,527.101562 C591.912765,527.335939 592.882807,527.453125 593.898438,527.453125 C596.059907,527.453125 597.694005,527.042973 598.800781,526.222656 C599.907558,525.40234 600.460938,524.328132 600.460938,523 L600.460938,523 Z M643.195312,534.679688 C642.674477,533.664057 642.296876,532.401049 642.0625,530.890625 C640.916661,532.166673 639.477873,533.247391 637.746094,534.132812 C636.014314,535.018234 633.89845,535.460938 631.398438,535.460938 C629.367177,535.460938 627.472665,535.148441 625.714844,534.523438 C623.957022,533.898434 622.4336,533.026047 621.144531,531.90625 C619.855462,530.786453 618.846358,529.451831 618.117188,527.902344 C617.388017,526.352857 617.023438,524.653655 617.023438,522.804688 C617.023438,520.591135 617.43359,518.625009 618.253906,516.90625 C619.074223,515.187491 620.304679,513.729173 621.945312,512.53125 C623.585946,511.333327 625.623686,510.421878 628.058594,509.796875 C630.493502,509.171872 633.325505,508.859375 636.554688,508.859375 L641.59375,508.859375 L641.59375,506.4375 C641.59375,504.484365 641.092453,502.921881 640.089844,501.75 C639.087235,500.578119 637.505219,499.992188 635.34375,499.992188 C633.442699,499.992188 631.951828,500.447912 630.871094,501.359375 C629.790359,502.270838 629.25,503.520825 629.25,505.109375 L617.960938,505.109375 C617.960938,503.286449 618.38411,501.554696 619.230469,499.914062 C620.076827,498.273429 621.281242,496.841152 622.84375,495.617188 C624.406258,494.393223 626.29426,493.423181 628.507812,492.707031 C630.721365,491.990882 633.195299,491.632812 635.929688,491.632812 C638.377616,491.632812 640.643219,491.945309 642.726562,492.570312 C644.809906,493.195316 646.606763,494.126296 648.117188,495.363281 C649.627612,496.600267 650.805985,498.14973 651.652344,500.011719 C652.498702,501.873707 652.921875,504.041654 652.921875,506.515625 L652.921875,524.40625 C652.921875,525.604173 652.960937,526.678381 653.039062,527.628906 C653.117188,528.579432 653.221354,529.438798 653.351562,530.207031 C653.481771,530.975264 653.651041,531.665362 653.859375,532.277344 C654.067709,532.889326 654.315103,533.468747 654.601562,534.015625 L654.601562,534.679688 L643.195312,534.679688 Z M633.859375,526.828125 C634.822921,526.828125 635.71484,526.710939 636.535156,526.476562 C637.355473,526.242186 638.091143,525.9362 638.742188,525.558594 C639.393232,525.180988 639.959633,524.744794 640.441406,524.25 C640.923179,523.755206 641.30729,523.247398 641.59375,522.726562 L641.59375,515.460938 L636.945312,515.460938 C635.46093,515.460938 634.17188,515.623696 633.078125,515.949219 C631.98437,516.274741 631.085941,516.730466 630.382812,517.316406 C629.679684,517.902347 629.158856,518.592444 628.820312,519.386719 C628.481769,520.180994 628.3125,521.04687 628.3125,521.984375 C628.3125,523.390632 628.807287,524.549475 629.796875,525.460938 C630.786463,526.3724 632.140616,526.828125 633.859375,526.828125 L633.859375,526.828125 Z M659.953125,513.234375 C659.953125,510.031234 660.350256,507.101576 661.144531,504.445312 C661.938806,501.789049 663.071607,499.510426 664.542969,497.609375 C666.01433,495.708324 667.804677,494.236984 669.914062,493.195312 C672.023448,492.153641 674.406237,491.632812 677.0625,491.632812 C679.536471,491.632812 681.652335,492.049475 683.410156,492.882812 C685.167978,493.71615 686.658848,494.888013 687.882812,496.398438 L688.351562,492.414062 L698.585938,492.414062 L698.585938,533.234375 C698.585938,536.125014 698.091151,538.690093 697.101562,540.929688 C696.111974,543.169282 694.725269,545.063794 692.941406,546.613281 C691.157543,548.162768 689.022148,549.334631 686.535156,550.128906 C684.048165,550.923181 681.294286,551.320312 678.273438,551.320312 C676.971348,551.320312 675.591153,551.190105 674.132812,550.929688 C672.674472,550.66927 671.235684,550.265628 669.816406,549.71875 C668.397128,549.171872 667.049486,548.481775 665.773438,547.648438 C664.497389,546.8151 663.416671,545.825527 662.53125,544.679688 L667.53125,537.804688 C668.859382,539.28907 670.376294,540.447913 672.082031,541.28125 C673.787769,542.114587 675.682281,542.53125 677.765625,542.53125 C680.760432,542.53125 683.091138,541.730477 684.757812,540.128906 C686.424487,538.527336 687.257812,536.255223 687.257812,533.3125 L687.257812,531.046875 C686.007806,532.453132 684.536467,533.540361 682.84375,534.308594 C681.151033,535.076827 679.197928,535.460938 676.984375,535.460938 C674.354154,535.460938 671.990896,534.920578 669.894531,533.839844 C667.798167,532.759109 666.01433,531.268239 664.542969,529.367188 C663.071607,527.466136 661.938806,525.207044 661.144531,522.589844 C660.350256,519.972643 659.953125,517.12762 659.953125,514.054688 L659.953125,513.234375 Z M671.242188,514.054688 C671.242188,515.773446 671.411457,517.374993 671.75,518.859375 C672.088543,520.343757 672.615882,521.639317 673.332031,522.746094 C674.048181,523.85287 674.946609,524.725257 676.027344,525.363281 C677.108078,526.001305 678.390618,526.320312 679.875,526.320312 C681.671884,526.320312 683.175775,525.981774 684.386719,525.304688 C685.597662,524.627601 686.554684,523.677089 687.257812,522.453125 L687.257812,504.679688 C686.528642,503.429681 685.571621,502.47266 684.386719,501.808594 C683.201817,501.144528 681.723967,500.8125 679.953125,500.8125 C678.468743,500.8125 677.186203,501.131507 676.105469,501.769531 C675.024734,502.407555 674.119795,503.286453 673.390625,504.40625 C672.661455,505.526047 672.121096,506.841138 671.769531,508.351562 C671.417967,509.861987 671.242188,511.489575 671.242188,513.234375 L671.242188,514.054688 Z M726.710938,535.460938 C723.429671,535.460938 720.493503,534.927089 717.902344,533.859375 C715.311185,532.791661 713.110686,531.333343 711.300781,529.484375 C709.490876,527.635407 708.110682,525.46746 707.160156,522.980469 C706.209631,520.493477 705.734375,517.830743 705.734375,514.992188 L705.734375,513.46875 C705.734375,510.265609 706.19661,507.32944 707.121094,504.660156 C708.045578,501.990872 709.360669,499.692718 711.066406,497.765625 C712.772144,495.838532 714.842436,494.334641 717.277344,493.253906 C719.712252,492.173172 722.440089,491.632812 725.460938,491.632812 C728.507828,491.632812 731.190093,492.13411 733.507812,493.136719 C735.825532,494.139328 737.772128,495.545564 739.347656,497.355469 C740.923185,499.165374 742.108069,501.346341 742.902344,503.898438 C743.696619,506.450534 744.09375,509.289047 744.09375,512.414062 L744.09375,517.21875 L717.179688,517.21875 C717.36198,518.598965 717.73307,519.848953 718.292969,520.96875 C718.852867,522.088547 719.569006,523.045569 720.441406,523.839844 C721.313806,524.634119 722.335932,525.252602 723.507812,525.695312 C724.679693,526.138023 725.994784,526.359375 727.453125,526.359375 C729.510427,526.359375 731.41145,525.975264 733.15625,525.207031 C734.90105,524.438798 736.398431,523.247404 737.648438,521.632812 L743.195312,527.84375 C742.518226,528.807296 741.67188,529.744787 740.65625,530.65625 C739.64062,531.567713 738.442715,532.381507 737.0625,533.097656 C735.682285,533.813806 734.126311,534.386717 732.394531,534.816406 C730.662752,535.246096 728.768239,535.460938 726.710938,535.460938 L726.710938,535.460938 Z M725.421875,500.773438 C724.197911,500.773438 723.123703,500.988279 722.199219,501.417969 C721.274735,501.847658 720.480472,502.446611 719.816406,503.214844 C719.15234,503.983077 718.611981,504.901036 718.195312,505.96875 C717.778644,507.036464 717.479168,508.221348 717.296875,509.523438 L733,509.523438 L733,508.625 C732.973958,507.505203 732.811199,506.463546 732.511719,505.5 C732.212238,504.536454 731.756513,503.703129 731.144531,503 C730.532549,502.296871 729.751307,501.750002 728.800781,501.359375 C727.850256,500.968748 726.723965,500.773438 725.421875,500.773438 L725.421875,500.773438 Z" id="intro_copy" sketch:type="MSShapeGroup"></path>
        </g>
    </g>
</svg>