<?xml version="1.0" encoding="UTF-8" standalone="no"?>
<svg width="150px" height="33px" viewBox="0 0 150 33" version="1.1" xmlns="http://www.w3.org/2000/svg" xmlns:xlink="http://www.w3.org/1999/xlink" xmlns:sketch="http://www.bohemiancoding.com/sketch/ns">
    <!-- Generator: Sketch 3.3.2 (12043) - http://www.bohemiancoding.com/sketch -->
    <title>logo</title>
    <desc>Created with Sketch.</desc>
    <defs>
        <linearGradient x1="50%" y1="0%" x2="161.74283%" y2="0%" id="linearGradient-1">
            <stop stop-color="#FFFFFF" offset="0%"></stop>
            <stop stop-color="#EDFFFE" stop-opacity="0.555706522" offset="100%"></stop>
        </linearGradient>
    </defs>
    <g id="Page-1" stroke="none" stroke-width="1" fill="none" fill-rule="evenodd" sketch:type="MSPage">
        <g id="Desktop-HD" sketch:type="MSArtboardGroup" transform="translate(-249.000000, -36.000000)" fill="url(#linearGradient-1)">
            <g id="header" sketch:type="MSLayerGroup" transform="translate(-8.000000, 35.000000)">
                <path d="M257.924325,5.97828571 L263.711527,5.97828571 C264.222217,5.97828571 264.635853,6.38742857 264.635853,6.89257143 L264.635853,10.4304 C264.635853,10.9355429 264.792988,10.9652571 265.016675,10.5117714 C266.47526,7.55634286 268.686247,5.61211429 272.302208,5.47725714 C272.812436,5.45805714 273.226534,5.89051429 273.226534,6.39565714 L273.226534,12.4678857 C273.226534,12.9730286 273.136412,13.3821714 273.025493,13.3821714 L272.824452,13.3821714 C267.750367,13.3821714 264.635853,16.4134857 264.635853,22.7737143 L264.635853,31.6985143 C264.635853,32.2032 264.222217,32.6128 263.711527,32.6128 L257.924325,32.6128 C257.413636,32.6128 257,32.2032 257,31.6985143 L257,6.89257143 C257,6.38742857 257.413636,5.97828571 257.924325,5.97828571 Z M332.599194,24.8610286 C332.599194,19.0470857 337.070156,16.3636571 343.448464,16.3636571 C345.747262,16.3636571 347.504867,16.6845714 349.149242,17.176 C349.63821,17.3218286 350.029199,17.3570286 350.029199,17.2331429 L350.029199,17.0096 C350.029199,13.8790857 348.070092,12.1401143 344.252165,12.1401143 C341.689473,12.1401143 339.787211,12.5634286 337.689917,13.2742857 C337.206956,13.4379429 336.689796,13.192 336.531275,12.712 L335.197935,8.68594286 C335.038951,8.20594286 335.287595,7.65051429 335.760387,7.45897143 C338.446477,6.37097143 341.223613,5.68022857 345.357196,5.68022857 C349.527291,5.68022857 352.541054,6.77325714 354.450248,8.66171429 C356.459732,10.6493714 357.363722,13.5810286 357.363722,17.1586286 L357.363722,31.6985143 C357.363722,32.2032 356.949624,32.6128 356.439397,32.6128 L350.903611,32.6128 C350.393384,32.6128 349.979286,32.2032 349.979286,31.6985143 L349.979286,30.6448 C349.979286,30.1401143 349.704761,30.0381714 349.33272,30.3837714 C347.536294,32.0496 345.145064,33.1097143 341.841524,33.1097143 C336.768826,33.1097143 332.599194,30.2274286 332.599194,24.9602286 L332.599194,24.8610286 Z M350.129489,22.5501714 C350.129489,22.1794286 349.754675,21.7044571 349.272639,21.5376 C348.112611,21.1362286 346.732593,20.8852571 345.256907,20.8852571 C341.992652,20.8852571 339.984092,22.1776 339.984092,24.5625143 L339.984092,24.6621714 C339.984092,26.6996571 341.691322,27.8923429 344.151414,27.8923429 C347.718386,27.8923429 350.129489,25.9540571 350.129489,23.2208 L350.129489,22.5501714 Z M362.178071,19.3451429 C362.178071,11.7424 368.056319,5.48137143 376.295294,5.48137143 C380.95066,5.48137143 384.000009,6.904 386.411112,9.28891429 C386.772524,9.64548571 386.763742,10.2534857 386.416196,10.6228571 L383.002662,14.2534857 C382.654654,14.6228571 382.091739,14.6214857 381.721547,14.2740571 C380.215821,12.8624 378.613503,11.9906286 376.244456,11.9906286 C372.426992,11.9906286 369.713635,15.32 369.713635,19.2454857 L369.713635,19.3451429 C369.713635,23.4196571 372.376154,26.6996571 376.546249,26.6996571 C378.791897,26.6996571 380.420559,25.8594286 382.039977,24.4806857 C382.427269,24.1510857 383.016989,24.1584 383.375627,24.5172571 L386.546064,27.6893714 C386.905164,28.0482286 386.919029,28.6434286 386.560853,29.0032 C384.086896,31.4845714 381.140146,33.2084571 376.194543,33.2084571 C368.106695,33.2084571 362.178071,27.0470857 362.178071,19.4448 L362.178071,19.3451429 Z M393.033904,13.3524571 C393.033904,12.8473143 392.620269,12.4381714 392.109579,12.4381714 L390.743426,12.4381714 C390.233198,12.4381714 389.8191,12.0285714 389.8191,11.5238857 L389.8191,6.89257143 C389.8191,6.38742857 390.233198,5.97828571 390.743426,5.97828571 L392.109579,5.97828571 C392.620269,5.97828571 393.033904,5.56868571 393.033904,5.064 L393.033904,1.91428571 C393.033904,1.40914286 393.448002,1 393.95823,1 L399.745894,1 C400.256121,1 400.670219,1.40914286 400.670219,1.91428571 L400.670219,5.064 C400.670219,5.56868571 401.083855,5.97828571 401.594545,5.97828571 L406.075675,5.97828571 C406.586364,5.97828571 407,6.38742857 407,6.89257143 L407,11.5238857 C407,12.0285714 406.586364,12.4381714 406.075675,12.4381714 L401.594545,12.4381714 C401.083855,12.4381714 400.670219,12.8473143 400.670219,13.3524571 L400.670219,23.8173714 C400.670219,25.5568 401.424007,26.4011429 403.131698,26.4011429 C404.195597,26.4011429 405.172609,26.2022857 406.06412,25.8475429 C406.537375,25.6592 406.899249,25.8662857 406.899249,26.3714286 L406.899249,30.6054857 C406.899249,31.1106286 406.545232,31.7328 406.086766,31.9545143 C404.66423,32.6425143 403.013384,33.0598857 400.87126,33.0598857 C396.199257,33.0598857 393.033904,31.2212571 393.033904,25.0598857 L393.033904,13.3524571 Z M288.337869,5.48137143 C280.500975,5.48137143 275.036825,11.7424 275.036825,19.3451429 L275.036825,19.4448 C275.036825,27.5938286 281.003346,33.2084571 289.091656,33.2084571 C293.587575,33.2084571 297.008966,31.6016 299.484772,28.9328 C299.830007,28.5606857 299.774548,27.9686857 299.392339,27.6340571 L296.404457,25.0196571 C296.022249,24.6845714 295.410807,24.6950857 295.017045,25.0169143 C293.180872,26.5181714 291.458391,27.1467429 289.180391,27.1467429 C286.070498,27.1467429 282.921321,25.7552 281.969266,22.9021714 C281.809358,22.4226286 282.141191,22.1108571 282.651418,22.1108571 L300.413257,22.1108571 C300.923484,22.1108571 301.369471,21.6112 301.399974,21.1074286 C301.422158,20.7298286 301.44388,20.3202286 301.44388,19.9869714 C301.44388,12.4340571 297.330169,5.48137143 288.337869,5.48137143 Z M294.107046,17.5394286 L291.61414,17.5394286 C291.614602,17.5202286 291.616913,17.5014857 291.616913,17.4822857 C291.616913,15.7465143 290.194376,14.3394286 288.439544,14.3394286 C288.000028,14.3394286 287.581308,14.4276571 287.200024,14.5876571 C287.359008,14.7430857 287.457449,14.9584 287.457449,15.1965714 C287.457449,15.6701714 287.069694,16.0537143 286.590894,16.0537143 C286.282169,16.0537143 286.01319,15.8928 285.859752,15.6528 C285.484938,16.1684571 285.262176,16.7988571 285.262176,17.4822857 C285.262176,17.5014857 285.264486,17.5202286 285.264949,17.5394286 L282.772505,17.5394286 C282.261815,17.5394286 281.849104,17.128 281.92952,16.6297143 C282.431429,13.5179429 285.152643,11.1394286 288.439544,11.1394286 C291.726908,11.1394286 294.44766,13.5179429 294.949569,16.6297143 C295.029985,17.128 294.617274,17.5394286 294.107046,17.5394286 Z M316.529796,5.48137143 C308.692902,5.48137143 303.228752,11.7424 303.228752,19.3451429 L303.228752,19.4448 C303.228752,27.5938286 309.195273,33.2084571 317.283583,33.2084571 C321.779502,33.2084571 325.200893,31.6016 327.676699,28.9328 C328.021934,28.5606857 327.966475,27.9686857 327.584266,27.6340571 L324.596384,25.0196571 C324.214175,24.6845714 323.602734,24.6950857 323.208972,25.0169143 C321.372799,26.5181714 319.650318,27.1467429 317.37278,27.1467429 C314.262425,27.1467429 311.113248,25.7552 310.161193,22.9021714 C310.001285,22.4226286 310.333118,22.1108571 310.843345,22.1108571 L328.605184,22.1108571 C329.115411,22.1108571 329.561398,21.6112 329.591901,21.1074286 C329.614085,20.7298286 329.635807,20.3202286 329.635807,19.9869714 C329.635807,12.4340571 325.522096,5.48137143 316.529796,5.48137143 Z M322.298973,17.5394286 L319.806067,17.5394286 C319.806529,17.5202286 319.80884,17.5014857 319.80884,17.4822857 C319.80884,15.7465143 318.386303,14.3394286 316.631471,14.3394286 C316.191955,14.3394286 315.773235,14.4276571 315.391951,14.5876571 C315.550935,14.7430857 315.649376,14.9584 315.649376,15.1965714 C315.649376,15.6701714 315.261621,16.0537143 314.78282,16.0537143 C314.474096,16.0537143 314.205117,15.8928 314.051679,15.6528 C313.676865,16.1684571 313.454103,16.7988571 313.454103,17.4822857 C313.454103,17.5014857 313.456413,17.5202286 313.456876,17.5394286 L310.964432,17.5394286 C310.453742,17.5394286 310.041031,17.128 310.121447,16.6297143 C310.623356,13.5179429 313.34457,11.1394286 316.631471,11.1394286 C319.918835,11.1394286 322.639587,13.5179429 323.141496,16.6297143 C323.221912,17.128 322.809201,17.5394286 322.298973,17.5394286 L322.298973,17.5394286 Z" id="logo" sketch:type="MSShapeGroup"></path>
            </g>
        </g>
    </g>
</svg>