<?xml version="1.0" encoding="UTF-8" standalone="no"?>
<svg width="40px" height="40px" viewBox="0 0 40 40" version="1.1" xmlns="http://www.w3.org/2000/svg" xmlns:xlink="http://www.w3.org/1999/xlink" xmlns:sketch="http://www.bohemiancoding.com/sketch/ns">
    <!-- Generator: Sketch 3.3.2 (12043) - http://www.bohemiancoding.com/sketch -->
    <title>tw_icon</title>
    <desc>Created with Sketch.</desc>
    <defs></defs>
    <g id="Page-1" stroke="none" stroke-width="1" fill="none" fill-rule="evenodd" sketch:type="MSPage">
        <g id="Desktop-HD" sketch:type="MSArtboardGroup" transform="translate(-1114.000000, -35.000000)" fill="#EBFFFE">
            <g id="header" sketch:type="MSLayerGroup" transform="translate(-8.000000, 35.000000)">
                <path d="M1141.7008,0 C1130.8208,0 1122,8.8224 1122,19.7 C1122,30.58 1130.8208,39.3984 1141.7008,39.3984 C1152.58,39.3984 1161.4,30.58 1161.4,19.7 C1161.4,8.8224 1152.58,0 1141.7008,0 L1141.7008,0 Z M1146.9152,19.6176 L1143.504,19.6176 L1143.504,31.7832 L1138.4472,31.7832 L1138.4472,19.6176 L1136.0432,19.6176 L1136.0432,15.3224 L1138.4472,15.3224 L1138.4472,12.5392 C1138.4472,10.5472 1139.3936,7.4376 1143.5504,7.4376 L1147.2944,7.452 L1147.2944,11.624 L1144.5752,11.624 C1144.1328,11.624 1143.504,11.8456 1143.504,12.7928 L1143.504,15.3224 L1147.3584,15.3224 L1146.9152,19.6176 L1146.9152,19.6176 Z" id="tw_icon" sketch:type="MSShapeGroup"></path>
            </g>
        </g>
    </g>
</svg>